<?xml version="1.0" encoding="UTF-8"?>
<!DOCTYPE svg PUBLIC "-//W3C//DTD SVG 1.1//EN" "http://www.w3.org/Graphics/SVG/1.1/DTD/svg11.dtd">
<svg xmlns="http://www.w3.org/2000/svg" version="1.1" width="2120px" height="1180px" style="shape-rendering:geometricPrecision; text-rendering:geometricPrecision; image-rendering:optimizeQuality; fill-rule:evenodd; clip-rule:evenodd" xmlns:xlink="http://www.w3.org/1999/xlink">
<g><path style="opacity:0.987" fill="#c3c9d5" d="M 1649.5,101.5 C 1371.5,101.667 1093.5,101.5 815.5,101C 1052.5,100.5 1289.5,100.333 1526.5,100.5C 1535.76,99.6386 1545.43,99.3052 1555.5,99.5C 1586.99,100.137 1618.32,100.804 1649.5,101.5 Z"/></g>
<g><path style="opacity:0.999" fill="#c6cfe2" d="M 1526.5,100.5 C 1289.5,100.333 1052.5,100.5 815.5,101C 1093.5,101.5 1371.5,101.667 1649.5,101.5C 1650.24,101.369 1650.91,101.536 1651.5,102C 1700.39,151.222 1749.55,200.055 1799,248.5C 1799.67,374.172 1800.5,499.839 1801.5,625.5C 1803.5,625.5 1805.5,625.5 1807.5,625.5C 1820.48,626.833 1833.82,627.499 1847.5,627.5C 1861.18,627.499 1874.52,626.833 1887.5,625.5C 1889.72,626.203 1891.55,627.536 1893,629.5C 1944.28,682.107 1995.44,734.607 2046.5,787C 2046.17,787.333 2045.83,787.667 2045.5,788C 2046.97,911.036 2048.3,1034.04 2049.5,1157C 2032.31,1158.16 2014.98,1158.66 1997.5,1158.5C 1819.25,1157.84 1640.59,1157.51 1461.5,1157.5C 1461.04,1154.78 1460.37,1152.11 1459.5,1149.5C 1460.12,1149.39 1460.62,1149.06 1461,1148.5C 1461.5,1142.51 1461.67,1136.51 1461.5,1130.5C 1461.67,1125.49 1461.5,1120.49 1461,1115.5C 1457.63,1111.31 1454.13,1107.31 1450.5,1103.5C 1449.16,1100.83 1447.32,1098.5 1445,1096.5C 1444.54,1097.09 1444.37,1097.76 1444.5,1098.5C 1443.68,1096.61 1442.84,1094.61 1442,1092.5C 1436.96,1087.12 1432.29,1081.46 1428,1075.5C 1427.5,910.167 1427.33,744.834 1427.5,579.5C 1538.5,579.5 1649.5,579.5 1760.5,579.5C 1760.67,475.166 1760.5,370.833 1760,266.5C 1717.5,224 1675,181.5 1632.5,139C 1391.5,138.5 1150.5,138.333 909.5,138.5C 909.5,209.167 909.5,279.833 909.5,350.5C 944.5,350.5 979.5,350.5 1014.5,350.5C 1014.5,402.5 1014.5,454.5 1014.5,506.5C 881.833,506.5 749.167,506.5 616.5,506.5C 616.5,597.167 616.5,687.833 616.5,778.5C 615.674,818.828 615.34,859.161 615.5,899.5C 628.235,900.175 641.069,900.842 654,901.5C 754.43,900.501 854.93,900.168 955.5,900.5C 955.168,940.337 955.501,980.004 956.5,1019.5C 956.667,1038.17 956.5,1056.84 956,1075.5C 953.44,1081.62 950.606,1087.62 947.5,1093.5C 949.045,1094.45 950.712,1094.79 952.5,1094.5C 1076.83,1094.5 1201.17,1094.5 1325.5,1094.5C 1352.83,1094.5 1380.17,1094.5 1407.5,1094.5C 1416.17,1104.83 1424.83,1115.17 1433.5,1125.5C 1434.81,1127.47 1436.47,1129.14 1438.5,1130.5C 1439.16,1132.49 1440.33,1134.15 1442,1135.5C 1442.5,1142.83 1442.67,1150.16 1442.5,1157.5C 1267.17,1157.5 1091.83,1157.5 916.5,1157.5C 916.76,1084.38 917.093,1011.38 917.5,938.5C 803.5,938.5 689.5,938.5 575.5,938.5C 575.751,881.998 576.418,825.664 577.5,769.5C 577.5,772.167 577.5,774.833 577.5,777.5C 578.5,777.5 579.5,777.5 580.5,777.5C 580.579,778.93 580.246,780.264 579.5,781.5C 581.093,785.309 581.926,789.309 582,793.5C 583.007,790.425 583.507,787.258 583.5,784C 581.775,771.226 581.108,758.392 581.5,745.5C 582.5,745.5 583.5,745.5 584.5,745.5C 584.5,756.167 584.5,766.833 584.5,777.5C 585.5,777.5 586.5,777.5 587.5,777.5C 587.83,764.116 587.163,750.783 585.5,737.5C 587.166,718.85 588.499,700.184 589.5,681.5C 588.167,681.5 586.833,681.5 585.5,681.5C 585.164,697.541 584.164,713.541 582.5,729.5C 581.167,702.833 581.167,676.167 582.5,649.5C 583.273,647.187 583.94,644.854 584.5,642.5C 584.759,636.187 584.425,629.854 583.5,623.5C 591.5,623.167 591.5,622.833 583.5,622.5C 583.847,615.595 583.847,608.595 583.5,601.5C 582.5,601.5 581.5,601.5 580.5,601.5C 580.833,628.175 580.5,654.842 579.5,681.5C 578.833,686.985 578.167,692.319 577.5,697.5C 579.306,497.98 581.306,298.646 583.5,99.5C 898,99.1668 1212.33,99.5002 1526.5,100.5 Z M 989.5,482.5 C 866.5,482.5 743.5,482.5 620.5,482.5C 620.5,438.167 620.5,393.833 620.5,349.5C 620.5,279.167 620.5,208.833 620.5,138.5C 708.5,138.5 796.5,138.5 884.5,138.5C 884.5,217.5 884.5,296.5 884.5,375.5C 919.5,375.5 954.5,375.5 989.5,375.5C 989.5,411.167 989.5,446.833 989.5,482.5 Z M 1547.5,664.5 C 1654.5,664.5 1761.5,664.5 1868.5,664.5C 1870.72,664.178 1872.56,664.845 1874,666.5C 1919,712.833 1964,759.167 2009,805.5C 2009.5,909.833 2009.67,1014.17 2009.5,1118.5C 1838.5,1118.5 1667.5,1118.5 1496.5,1118.5C 1496.5,967.167 1496.5,815.833 1496.5,664.5C 1513.5,664.5 1530.5,664.5 1547.5,664.5 Z"/></g>
<g><path style="opacity:1" fill="#686164" d="M 620.5,349.5 C 620.5,393.833 620.5,438.167 620.5,482.5C 619.17,476.705 618.504,470.538 618.5,464C 619.248,441.506 619.582,419.006 619.5,396.5C 619.17,380.658 619.504,364.991 620.5,349.5 Z"/></g>
<g><path style="opacity:1" fill="#d5dcf3" d="M 619.5,396.5 C 619.582,419.006 619.248,441.506 618.5,464C 618.504,470.538 619.17,476.705 620.5,482.5C 743.5,482.5 866.5,482.5 989.5,482.5C 866.237,483.5 742.237,483.833 617.5,483.5C 617.333,448.165 617.5,412.832 618,377.5C 618.172,384.013 618.672,390.347 619.5,396.5 Z"/></g>
<g><path style="opacity:1" fill="#c0c4e5" d="M 1807.5,625.5 C 1834.17,625.5 1860.83,625.5 1887.5,625.5C 1874.52,626.833 1861.18,627.499 1847.5,627.5C 1833.82,627.499 1820.48,626.833 1807.5,625.5 Z"/></g>
<g><path style="opacity:1" fill="#e2e4e9" d="M 1868.5,664.5 C 1761.5,664.5 1654.5,664.5 1547.5,664.5C 1548.45,663.548 1549.45,662.548 1550.5,661.5C 1656.52,663.163 1762.52,664.163 1868.5,664.5 Z"/></g>
<g><path style="opacity:1" fill="#c4cce4" d="M 577.5,769.5 C 577.5,745.5 577.5,721.5 577.5,697.5C 578.167,692.319 578.833,686.985 579.5,681.5C 580.5,654.842 580.833,628.175 580.5,601.5C 581.5,601.5 582.5,601.5 583.5,601.5C 583.847,608.595 583.847,615.595 583.5,622.5C 591.5,622.833 591.5,623.167 583.5,623.5C 584.425,629.854 584.759,636.187 584.5,642.5C 583.94,644.854 583.273,647.187 582.5,649.5C 581.167,676.167 581.167,702.833 582.5,729.5C 584.164,713.541 585.164,697.541 585.5,681.5C 586.833,681.5 588.167,681.5 589.5,681.5C 588.499,700.184 587.166,718.85 585.5,737.5C 587.163,750.783 587.83,764.116 587.5,777.5C 586.5,777.5 585.5,777.5 584.5,777.5C 584.5,766.833 584.5,756.167 584.5,745.5C 583.5,745.5 582.5,745.5 581.5,745.5C 581.108,758.392 581.775,771.226 583.5,784C 583.507,787.258 583.007,790.425 582,793.5C 581.926,789.309 581.093,785.309 579.5,781.5C 580.246,780.264 580.579,778.93 580.5,777.5C 579.5,777.5 578.5,777.5 577.5,777.5C 577.5,774.833 577.5,772.167 577.5,769.5 Z"/></g>
<g><path style="opacity:1" fill="#595e6c" d="M 616.5,778.5 C 730.167,778.5 843.833,778.5 957.5,778.5C 957.26,805.253 957.26,831.586 957.5,857.5C 989.833,857.5 1022.17,857.5 1054.5,857.5C 1054.5,930.167 1054.5,1002.83 1054.5,1075.5C 1024.83,1075.33 995.165,1075.5 965.5,1076C 961.628,1082.02 957.628,1087.85 953.5,1093.5C 952.833,1093.5 952.5,1093.83 952.5,1094.5C 950.712,1094.79 949.045,1094.45 947.5,1093.5C 950.606,1087.62 953.44,1081.62 956,1075.5C 956.5,1056.84 956.667,1038.17 956.5,1019.5C 956.5,979.5 956.5,939.5 956.5,899.5C 842.833,899.5 729.167,899.5 615.5,899.5C 615.34,859.161 615.674,818.828 616.5,778.5 Z"/></g>
<g><path style="opacity:1" fill="#404351" d="M 957.5,778.5 C 989.833,778.5 1022.17,778.5 1054.5,778.5C 1054.5,804.833 1054.5,831.167 1054.5,857.5C 1022.17,857.5 989.833,857.5 957.5,857.5C 957.26,831.586 957.26,805.253 957.5,778.5 Z"/></g>
<g><path style="opacity:1" fill="#dbe3f5" d="M 615.5,899.5 C 729.167,899.5 842.833,899.5 956.5,899.5C 956.5,939.5 956.5,979.5 956.5,1019.5C 955.501,980.004 955.168,940.337 955.5,900.5C 854.93,900.168 754.43,900.501 654,901.5C 641.069,900.842 628.235,900.175 615.5,899.5 Z"/></g>
<g><path style="opacity:1" fill="#5b5b6c" d="M 959.5,977.5 C 962.167,977.5 964.833,977.5 967.5,977.5C 967.5,980.167 967.5,982.833 967.5,985.5C 972.833,985.5 978.167,985.5 983.5,985.5C 983.5,988.167 983.5,990.833 983.5,993.5C 980.833,993.5 978.167,993.5 975.5,993.5C 975.5,1000.17 975.5,1006.83 975.5,1013.5C 980.833,1013.5 986.167,1013.5 991.5,1013.5C 991.5,1020.17 991.5,1026.83 991.5,1033.5C 983.5,1033.5 975.5,1033.5 967.5,1033.5C 967.5,1031.5 967.5,1029.5 967.5,1027.5C 970.167,1027.5 972.833,1027.5 975.5,1027.5C 975.5,1026.17 975.5,1024.83 975.5,1023.5C 972.833,1023.5 970.167,1023.5 967.5,1023.5C 967.5,1021.5 967.5,1019.5 967.5,1017.5C 964.833,1017.5 962.167,1017.5 959.5,1017.5C 959.5,1004.17 959.5,990.833 959.5,977.5 Z"/></g>
<g><path style="opacity:0.997" fill="#272730" d="M 1054.5,778.5 C 1055.5,877.332 1055.83,976.332 1055.5,1075.5C 1056.83,1075.5 1058.17,1075.5 1059.5,1075.5C 1058.34,1079.39 1056.34,1080.05 1053.5,1077.5C 1052.83,1077.83 1052.17,1078.17 1051.5,1078.5C 1052.38,1079.25 1053.38,1079.75 1054.5,1080C 1052.5,1080.67 1050.5,1081.33 1048.5,1082C 1049.34,1083.01 1049.67,1084.18 1049.5,1085.5C 1045.49,1085.86 1041.49,1086.36 1037.5,1087C 1036.01,1088.16 1036.17,1088.99 1038,1089.5C 1040.33,1087.55 1042.83,1087.22 1045.5,1088.5C 1043.89,1089.32 1042.23,1089.99 1040.5,1090.5C 1039.61,1091.32 1039.28,1092.32 1039.5,1093.5C 1013.85,1093.45 988.349,1093.45 963,1093.5C 961.833,1093.17 960.667,1092.83 959.5,1092.5C 960.934,1090.16 962.934,1087.66 965.5,1085C 963.58,1084.78 961.914,1085.45 960.5,1087C 960.833,1087.33 961.167,1087.67 961.5,1088C 959.162,1089.16 957.828,1091 957.5,1093.5C 956.167,1093.5 954.833,1093.5 953.5,1093.5C 957.628,1087.85 961.628,1082.02 965.5,1076C 995.165,1075.5 1024.83,1075.33 1054.5,1075.5C 1054.5,1002.83 1054.5,930.167 1054.5,857.5C 1054.5,831.167 1054.5,804.833 1054.5,778.5 Z"/></g>
<g><path style="opacity:1" fill="#383641" d="M 1311.5,1075.5 C 1332.83,1075.5 1354.17,1075.5 1375.5,1075.5C 1375.5,1077.17 1375.5,1078.83 1375.5,1080.5C 1372.79,1080.25 1370.12,1080.08 1367.5,1080C 1368.17,1080.33 1368.83,1080.67 1369.5,1081C 1368.35,1081.64 1367.35,1082.48 1366.5,1083.5C 1365.83,1082.83 1365.17,1082.17 1364.5,1081.5C 1363.74,1082.63 1363.07,1083.79 1362.5,1085C 1361.55,1085.62 1360.72,1085.45 1360,1084.5C 1358.33,1088.16 1355.5,1090.33 1351.5,1091C 1352.83,1091.33 1354.17,1091.67 1355.5,1092C 1355.17,1092.33 1354.83,1092.67 1354.5,1093C 1372.16,1093.5 1389.83,1093.67 1407.5,1093.5C 1407.5,1093.83 1407.5,1094.17 1407.5,1094.5C 1380.17,1094.5 1352.83,1094.5 1325.5,1094.5C 1319.36,1093.51 1313.02,1093.18 1306.5,1093.5C 1309.64,1092.68 1312.97,1092.18 1316.5,1092C 1316.17,1091.67 1315.83,1091.33 1315.5,1091C 1319.54,1088.25 1318.87,1086.75 1313.5,1086.5C 1321.1,1085.2 1328.44,1083.03 1335.5,1080C 1330.83,1079.67 1326.17,1079.33 1321.5,1079C 1322.5,1078.67 1323.5,1078.33 1324.5,1078C 1319.72,1078.11 1315.39,1077.28 1311.5,1075.5 Z"/></g>
<g><path style="opacity:1" fill="#2e2a2e" d="M 1230.5,1075.5 C 1257.5,1075.5 1284.5,1075.5 1311.5,1075.5C 1315.39,1077.28 1319.72,1078.11 1324.5,1078C 1323.5,1078.33 1322.5,1078.67 1321.5,1079C 1326.17,1079.33 1330.83,1079.67 1335.5,1080C 1328.44,1083.03 1321.1,1085.2 1313.5,1086.5C 1318.87,1086.75 1319.54,1088.25 1315.5,1091C 1315.83,1091.33 1316.17,1091.67 1316.5,1092C 1312.97,1092.18 1309.64,1092.68 1306.5,1093.5C 1282.17,1093.5 1257.83,1093.5 1233.5,1093.5C 1234.62,1090.92 1236.62,1089.25 1239.5,1088.5C 1236.83,1087.17 1236.83,1085.83 1239.5,1084.5C 1242.09,1083.52 1244.75,1083.19 1247.5,1083.5C 1247.5,1081.5 1247.5,1079.5 1247.5,1077.5C 1242.16,1077.67 1236.82,1077.5 1231.5,1077C 1230.94,1076.62 1230.61,1076.12 1230.5,1075.5 Z"/></g>
<g><path style="opacity:1" fill="#474855" d="M 1375.5,1075.5 C 1390.5,1075.33 1405.5,1075.5 1420.5,1076C 1422.2,1079.64 1423.2,1083.47 1423.5,1087.5C 1421.13,1085.45 1418.47,1085.12 1415.5,1086.5C 1413.04,1089.31 1410.37,1091.64 1407.5,1093.5C 1389.83,1093.67 1372.16,1093.5 1354.5,1093C 1354.83,1092.67 1355.17,1092.33 1355.5,1092C 1354.17,1091.67 1352.83,1091.33 1351.5,1091C 1355.5,1090.33 1358.33,1088.16 1360,1084.5C 1360.72,1085.45 1361.55,1085.62 1362.5,1085C 1363.07,1083.79 1363.74,1082.63 1364.5,1081.5C 1365.17,1082.17 1365.83,1082.83 1366.5,1083.5C 1367.35,1082.48 1368.35,1081.64 1369.5,1081C 1368.83,1080.67 1368.17,1080.33 1367.5,1080C 1370.12,1080.08 1372.79,1080.25 1375.5,1080.5C 1375.5,1078.83 1375.5,1077.17 1375.5,1075.5 Z"/></g>
<g><path style="opacity:1" fill="#252025" d="M 1059.5,1075.5 C 1084.83,1075.5 1110.17,1075.5 1135.5,1075.5C 1140.44,1077.13 1145.77,1078.13 1151.5,1078.5C 1162.17,1079.17 1172.83,1079.83 1183.5,1080.5C 1165.01,1080.86 1146.68,1081.86 1128.5,1083.5C 1127.67,1082.59 1126.67,1081.92 1125.5,1081.5C 1123.78,1082.55 1122.11,1082.55 1120.5,1081.5C 1119.88,1084.03 1118.88,1086.37 1117.5,1088.5C 1118.17,1089.17 1118.83,1089.83 1119.5,1090.5C 1156.83,1091.5 1194.16,1091.83 1231.5,1091.5C 1231.5,1090.17 1231.5,1088.83 1231.5,1087.5C 1210.21,1087.16 1210.21,1086.16 1231.5,1084.5C 1235.62,1083.19 1239.62,1081.69 1243.5,1080C 1234.17,1079.5 1224.84,1079.33 1215.5,1079.5C 1215.5,1078.17 1215.5,1076.83 1215.5,1075.5C 1220.5,1075.5 1225.5,1075.5 1230.5,1075.5C 1230.61,1076.12 1230.94,1076.62 1231.5,1077C 1236.82,1077.5 1242.16,1077.67 1247.5,1077.5C 1247.5,1079.5 1247.5,1081.5 1247.5,1083.5C 1244.75,1083.19 1242.09,1083.52 1239.5,1084.5C 1236.83,1085.83 1236.83,1087.17 1239.5,1088.5C 1236.62,1089.25 1234.62,1090.92 1233.5,1093.5C 1168.83,1093.5 1104.17,1093.5 1039.5,1093.5C 1039.28,1092.32 1039.61,1091.32 1040.5,1090.5C 1042.23,1089.99 1043.89,1089.32 1045.5,1088.5C 1042.83,1087.22 1040.33,1087.55 1038,1089.5C 1036.17,1088.99 1036.01,1088.16 1037.5,1087C 1041.49,1086.36 1045.49,1085.86 1049.5,1085.5C 1049.67,1084.18 1049.34,1083.01 1048.5,1082C 1050.5,1081.33 1052.5,1080.67 1054.5,1080C 1053.38,1079.75 1052.38,1079.25 1051.5,1078.5C 1052.17,1078.17 1052.83,1077.83 1053.5,1077.5C 1056.34,1080.05 1058.34,1079.39 1059.5,1075.5 Z"/></g>
<g><path style="opacity:1" fill="#272021" d="M 1135.5,1075.5 C 1162.17,1075.5 1188.83,1075.5 1215.5,1075.5C 1215.5,1076.83 1215.5,1078.17 1215.5,1079.5C 1224.84,1079.33 1234.17,1079.5 1243.5,1080C 1239.62,1081.69 1235.62,1083.19 1231.5,1084.5C 1210.21,1086.16 1210.21,1087.16 1231.5,1087.5C 1231.5,1088.83 1231.5,1090.17 1231.5,1091.5C 1194.16,1091.83 1156.83,1091.5 1119.5,1090.5C 1118.83,1089.83 1118.17,1089.17 1117.5,1088.5C 1118.88,1086.37 1119.88,1084.03 1120.5,1081.5C 1122.11,1082.55 1123.78,1082.55 1125.5,1081.5C 1126.67,1081.92 1127.67,1082.59 1128.5,1083.5C 1146.68,1081.86 1165.01,1080.86 1183.5,1080.5C 1172.83,1079.83 1162.17,1079.17 1151.5,1078.5C 1145.77,1078.13 1140.44,1077.13 1135.5,1075.5 Z"/></g>
<g><path style="opacity:1" fill="#090b16" d="M 1039.5,1093.5 C 1104.17,1093.5 1168.83,1093.5 1233.5,1093.5C 1257.83,1093.5 1282.17,1093.5 1306.5,1093.5C 1313.02,1093.18 1319.36,1093.51 1325.5,1094.5C 1201.17,1094.5 1076.83,1094.5 952.5,1094.5C 952.5,1093.83 952.833,1093.5 953.5,1093.5C 954.833,1093.5 956.167,1093.5 957.5,1093.5C 957.828,1091 959.162,1089.16 961.5,1088C 961.167,1087.67 960.833,1087.33 960.5,1087C 961.914,1085.45 963.58,1084.78 965.5,1085C 962.934,1087.66 960.934,1090.16 959.5,1092.5C 960.667,1092.83 961.833,1093.17 963,1093.5C 988.349,1093.45 1013.85,1093.45 1039.5,1093.5 Z"/></g>
<g><path style="opacity:1" fill="#585c6d" d="M 1423.5,1087.5 C 1427.75,1099.82 1431.08,1112.48 1433.5,1125.5C 1424.83,1115.17 1416.17,1104.83 1407.5,1094.5C 1407.5,1094.17 1407.5,1093.83 1407.5,1093.5C 1410.37,1091.64 1413.04,1089.31 1415.5,1086.5C 1418.47,1085.12 1421.13,1085.45 1423.5,1087.5 Z"/></g>
<g><path style="opacity:1" fill="#868fa8" d="M 1450.5,1103.5 C 1454.13,1107.31 1457.63,1111.31 1461,1115.5C 1461.5,1120.49 1461.67,1125.49 1461.5,1130.5C 1460.73,1131.26 1460.23,1132.26 1460,1133.5C 1459.5,1133 1459,1132.5 1458.5,1132C 1458.17,1130.84 1458.17,1129.5 1458.5,1128C 1456.9,1126.39 1455.57,1124.56 1454.5,1122.5C 1455.57,1120.67 1454.9,1119.51 1452.5,1119C 1453.49,1116.58 1453.15,1114.25 1451.5,1112C 1452.02,1111.44 1452.36,1110.77 1452.5,1110C 1450.99,1108.12 1450.32,1105.95 1450.5,1103.5 Z"/></g>
<g><path style="opacity:1" fill="#a2aabe" d="M 1450.5,1103.5 C 1450.32,1105.95 1450.99,1108.12 1452.5,1110C 1452.36,1110.77 1452.02,1111.44 1451.5,1112C 1453.15,1114.25 1453.49,1116.58 1452.5,1119C 1454.9,1119.51 1455.57,1120.67 1454.5,1122.5C 1455.57,1124.56 1456.9,1126.39 1458.5,1128C 1458.17,1129.5 1458.17,1130.84 1458.5,1132C 1459,1132.5 1459.5,1133 1460,1133.5C 1460.23,1132.26 1460.73,1131.26 1461.5,1130.5C 1461.67,1136.51 1461.5,1142.51 1461,1148.5C 1460.62,1149.06 1460.12,1149.39 1459.5,1149.5C 1454.66,1132.45 1449.66,1115.45 1444.5,1098.5C 1444.37,1097.76 1444.54,1097.09 1445,1096.5C 1447.32,1098.5 1449.16,1100.83 1450.5,1103.5 Z"/></g>
<g><path style="opacity:0.031" fill="#ecf1fe" d="M 1438.5,1129.5 C 1439.83,1130.17 1439.83,1130.17 1438.5,1129.5 Z"/></g>
<g><path style="opacity:1" fill="#c8d3dc" d="M 925.5,1145.5 C 1096.69,1147.16 1268.03,1148.16 1439.5,1148.5C 1268.17,1149.5 1096.83,1149.83 925.5,1149.5C 925.5,1148.17 925.5,1146.83 925.5,1145.5 Z"/></g>
</svg>
